<svg xmlns="http://www.w3.org/2000/svg" viewBox="0 0 821.15 91.14"><defs><style>.cls-1{fill:#fff;}</style></defs><g id="Layer_2" data-name="Layer 2"><g id="Layer_1-2" data-name="Layer 1"><path class="cls-1" d="M62.6,91.14V47.49L49.67,70H35.33L22.4,47.49V91.14H0V0H22L42.5,40.19,63,0H85V91.14Z"/><path class="cls-1" d="M100.29,91.14V0h22.4V91.14Z"/><path class="cls-1" d="M188.52,91.14l-21-37.38-7.68,8.83V91.14H137.7V0h22.15V32.26L186.21,0h27.4L182.5,36.87l32.13,54.27Z"/><path class="cls-1" d="M223.18,91.14V0h61.95V20H245.58V35.2h33.79v20H245.58v16h39.55v20Z"/><path class="cls-1" d="M375.5,91.14,359.37,57.22h-7.56V91.14h-22.4V0h36.1c20.23,0,31.11,14.34,31.11,29.31a26.21,26.21,0,0,1-14.85,23.81l19.71,38Zm-11-71H351.81V38.53h12.68c6.14,0,9.73-4.48,9.73-9.22S370.63,20.1,364.49,20.1Z"/><path class="cls-1" d="M411,91.14V0h22.4V91.14Z"/><path class="cls-1" d="M500,91.14,470.81,45.31V91.14h-22.4V0H468l29.18,45.83V0h22.4V91.14Z"/><path class="cls-1" d="M530.11,91.14V73.73L565.06,20H531.65V0h60.29V17.41L556.87,71.17h35.07v20Z"/><path class="cls-1" d="M603.1,91.14V0h22.4V71.17h38.27v20Z"/><path class="cls-1" d="M674,91.14V0h62V20H696.37V35.2h33.8v20h-33.8v16h39.56v20Z"/><path class="cls-1" d="M795.16,91.14,779,57.22h-7.55V91.14h-22.4V0h36.1c20.22,0,31.1,14.34,31.1,29.31a26.21,26.21,0,0,1-14.84,23.81l19.71,38Zm-11-71H771.48V38.53h12.67c6.15,0,9.73-4.48,9.73-9.22S790.3,20.1,784.15,20.1Z"/></g></g></svg>